<svg xmlns="http://www.w3.org/2000/svg" width="128" height="128" viewBox="0 0 128 128" id="main-person-small" data-supported-dps="128x128">
  <path d="M114 114.07l-7.07-7.07-5 5a14.91 14.91 0 011.41 1.69c1.55 2.18.29 5.38-1.26 7.68-.45.68-.92 1.36-1.32 2a2.6 2.6 0 00.27 3.32c.07.07.14.12.21.18z" fill="#80597e" fill-rule="evenodd"/>
  <path d="M102.65 120.12c-.28-.16 0-.67.31-.51l1.24.69a.24.24 0 01.08.33.29.29 0 01-.39.19l-1.24-.7zM103.32 118.25c-.32-.08-.14-.65.17-.57l1.4.34a.23.23 0 01.16.29c0 .16-.15.33-.33.28l-1.4-.34zM103.67 116.35c-.34 0-.31-.59 0-.59h1.46a.23.23 0 01.23.24.28.28 0 01-.25.35h-1.45zM103.52 114.5c-.33.09-.45-.48-.14-.56l1.42-.42a.23.23 0 01.29.16.29.29 0 01-.15.4l-1.42.42z" fill="#e1edf6" fill-rule="evenodd"/>
  <path d="M101.26 126.81L114 114.07l.71.7a1 1 0 010 1.43l-10.63 10.62a2 2 0 01-2.81 0z" fill="#1d2226" fill-rule="evenodd"/>
  <path d="M126.7 96C74.17 94.61 32 52.16 32 0h96v96z" fill="#e8f3ff"/>
  <path d="M79 27a6 6 0 017.4-6 2.36 2.36 0 002.41-.84 8.73 8.73 0 016.9-3.37c1.52.06 3.27.6 4.35-.82a9.83 9.83 0 0116.52 2.3 3.52 3.52 0 003.25 2.09 6 6 0 016 6.69zM78 15.47a4.34 4.34 0 00-5.31-4.34 1.69 1.69 0 01-1.72-.6A6.26 6.26 0 0066 8.11c-1.09.05-2.34.43-3.12-.58a7 7 0 00-11.81 1.65 2.5 2.5 0 01-2.32 1.49 4.33 4.33 0 00-4.33 4.8H78zM43.64 29.82a22.13 22.13 0 013.48 0c1.65 0 4.63.16 6.3-.7a7.42 7.42 0 013.89-.22 5.06 5.06 0 014.08 4.1H40a4.77 4.77 0 013.64-3.18z" fill="#fff"/>
  <path d="M15 39c1-3.4 2.84-6.69 2.51-10.34a22.15 22.15 0 00-3.51 8.4c.76-4 .25-6.3-.14-10.31a35 35 0 00-1.61 6c.35-1.39.14-1.36-.39-3.12A25.76 25.76 0 0111 25a16.9 16.9 0 00-.93 4.75 28 28 0 00.23 3.15c0 1 .1.71-.09.29a25.56 25.56 0 00-4.65-7 43.7 43.7 0 003 9.31 25.82 25.82 0 00-4.36-4.26c.79 1.68.38 4.18 1.3 5.79 1.63 2.66 4.83 3.97 6.5 6.63a1 1 0 001.18.05c1.73-3.08 5.91-5 6-8.83A35.62 35.62 0 0015 39z" fill="#738f65"/>
  <path fill="#0d2135" d="M17.02 41l-1.14 9h-7.4l-1.15-9h9.69z"/>
  <path fill="#6e6558" d="M20.99 36.03H24V50h-3.01z"/>
  <path fill="#e16745" d="M24 33h4v17h-4z"/>
  <path fill="#7b9370" d="M27 38h6v12h-6z"/>
  <path d="M85 91l13.64 20.91a2.34 2.34 0 003.36.59l6-4.5-6-15-10-9z" fill="#61382d"/>
  <rect x="13" y="65" width="75.68" height="4" rx="1.83" transform="rotate(180 50.84 67)" fill="#d29e59"/>
  <path fill="#5b696b" d="M23 123h-4V69h4zM78.02 69H82v43h-3.98z"/>
  <path d="M66.46 65H51.19a2.45 2.45 0 01-2-1 2.75 2.75 0 01-.28-2.62l7.28-18.12a.55.55 0 01.71-.3.52.52 0 01.31.69l-7.28 18.1a1.74 1.74 0 00.15 1.64 1.4 1.4 0 001.12.63h15.26a.48.48 0 01.54.47.54.54 0 01-.54.51z" fill="#56687a"/>
  <path d="M56.85 24.57l1.53-.32L66 61l-1.53.31a.63.63 0 01-.62-.21 38.87 38.87 0 01-8-17.17A39 39 0 0156.36 25a.63.63 0 01.49-.43z" fill="#56687a"/>
  <path d="M66.325 60.948l-1.145.237-7.628-36.767 1.146-.237a1.29 1.29 0 011.533 1.04l7.11 34.27a1.29 1.29 0 01-1.001 1.525z" fill="#9db3c8"/>
  <path d="M73.5 63L85 64c.68 0 1 .83 1 1.26V66H72v-2c0-.5.7-1.06 1.5-1z" fill="#56687a"/>
  <path d="M119.74 77.34l-24.91-6.29S87 76 83 79c-4.66 3.49-6 3.18-6 9v26.8a2.19 2.19 0 002.2 2.2h6.5l4.18-29.1a1 1 0 011-.9H110a10.06 10.06 0 009.74-9.66z" fill="#945646"/>
  <path d="M110.31 32.4c.72-2.29 1.75-5 .85-7.52a8.25 8.25 0 00-16 3.84c0 .18.07.35.12.53.32 1.72-.22 2.81 0 3.57s1.32.31 1.65 1.77c.7 2.57.89 2.62 3.75 2.75s2.24 7.66 2.24 7.66l10.68-5 .13-.12c-4.16-2.8-4.28-4.45-3.42-7.48z" fill="#f5cea9"/>
  <path d="M111.32 24.87a8.47 8.47 0 00-13.59-4A9 9 0 0095.1 24a.79.79 0 00.9 1.08 2.88 2.88 0 01.93-.21c.82.07 1 .83 1.7.32a1.06 1.06 0 011.12-.14c.51.24.48.53.55.87 0 0 0 1.69-.11 2.64a.72.72 0 101.43-.07 2 2 0 013.93-.44c.14 2.13 1.09 4.24 3.17 4.58a1.87 1.87 0 002.07-1.3c.76-2.33 1.27-3.96.53-6.46z" fill="#171923"/>
  <path d="M118 76V51a20.07 20.07 0 00-1.94-7.94c-1.19-2.43-4.62-5.46-4.62-5.46L103 41s-4 9-5 17c-.44 3.49-5 14-5 14a61.31 61.31 0 008 5c6.19 3.09 16 5 16 5z" fill="#3c4345"/>
  <path d="M105 49c-.42 3.47-3.59 7.41-7.85 9.37l-6.81 1.84a28.7 28.7 0 01-5.51 1.32 3.91 3.91 0 01-2.33-.45c-.68-.4-1.38-.77-2.07-1.15a1.47 1.47 0 00-1.26-.06l-1.93 1H75a.69.69 0 00-.7.59c-.08.72.66.7 1.15.76a1.5 1.5 0 01-.24.27.7.7 0 00-.07.92.67.67 0 001 .05c.22-.16 1.58-1.37 1.81-.83a3.25 3.25 0 00-.52.18.67.67 0 00-.27.61c.07.67 1.35.6 1.84.58a5 5 0 011.81.16c.8.19 1.32.83 2.19.84h3l14-.81a10 10 0 007.18-3.57c1.93-2.46 3.36-6.79 3.87-8.85z" fill="#f5cea9"/>
  <path d="M91 87h16.23a10.15 10.15 0 0010-8.45l3.15-18.46c1.29-6.39 5.38-7.5 5.38-7.5s-1.84 16.92-3.39 31.32S96 95 91 87z" fill="#7e9039"/>
  <path d="M123 128a.49.49 0 01-.49-.41l-5.37-30.69a3.49 3.49 0 00-3.45-2.9h-13.24A3.52 3.52 0 0097 97l-4.5 30.58a.5.5 0 11-1-.14L96 96.85a4.53 4.53 0 014.45-3.85h13.24a4.5 4.5 0 014.44 3.73l5.36 30.68a.49.49 0 01-.4.58z" fill="#0d2135"/>
  <path d="M109 41c-3.16 0-4 3-5 5l-3 10 9 4 3-11c1-3 1-8-4-8z" fill="#555b5d"/>
  <rect x="1" y="50" width="40" height="3" rx=".5" transform="rotate(-180 21 51.5)" fill="#dce6f1"/>
  <path d="M31.5 91h-7a2.5 2.5 0 00-2.5 2.5V95h1v-1.06A1.94 1.94 0 0124.94 92h6.12A1.94 1.94 0 0133 93.94V95h1v-1.5a2.5 2.5 0 00-2.5-2.5zM17 98l-5.29 9.26A20.51 20.51 0 009 117.46v3.85a2.68 2.68 0 002.69 2.69H21v-1h-8.88a2.12 2.12 0 01-2.12-2.12v-3.42a20.51 20.51 0 012.71-10.2L18 98z" fill="#0d2135"/>
  <path d="M40.29 99.72A6.14 6.14 0 0034.23 94H21.82a6.14 6.14 0 00-6.06 5.72L14.39 117h27.26z" fill="#e4e8cc"/>
  <path d="M41.65 117H14.39l-.32 3.83c-.34 4 2.95 7.17 7.12 7.17h13.67c4.17 0 7.45-3.16 7.12-7.17z" fill="#0d2135"/>
  <path d="M38.26 97.26L38 97v5.49a3.51 3.51 0 01-3.51 3.51h-13a3.51 3.51 0 01-3.49-3.51V97l-.26.26a2.54 2.54 0 00-.74 1.79v3.88a4.07 4.07 0 004.07 4.07h13.86a4.07 4.07 0 004.07-4.07v-3.88a2.54 2.54 0 00-.74-1.79z" fill="#cdd3ac"/>
  <rect x="24" y="105" width="8" height="3" rx=".77" fill="#fff"/>
  <path d="M86 126.4v-9.9a.5.5 0 00-.5-.5H81a2.12 2.12 0 00-2.11 1.81l-.06.38c-.44 2.63-3.6 4-6.32 4.54l-2.32.45a2.61 2.61 0 00-2.19 2.54v.68z" fill="#80597e" fill-rule="evenodd"/>
  <path d="M73.69 122.25c-.08-.31.5-.45.58-.14l.39 1.37a.23.23 0 01-.17.28c-.15.06-.36 0-.41-.14l-.39-1.37zM75.49 121.41c-.17-.29.37-.56.52-.29l.75 1.23a.22.22 0 01-.09.32.29.29 0 01-.43 0l-.75-1.22zM77.08 120.3c-.24-.23.2-.63.43-.4l1.06 1a.24.24 0 010 .33.29.29 0 01-.43.07l-1.06-1zM78.29 118.89c-.3-.16 0-.66.3-.5l1.29.71a.22.22 0 01.09.32.29.29 0 01-.39.18l-1.29-.71zM83 120a2 2 0 102 2 2 2 0 00-2-2z" fill="#e1edf6" fill-rule="evenodd"/>
  <path d="M68 126h18v1a1 1 0 01-1 1H70a2 2 0 01-2-2z" fill="#1d2226" fill-rule="evenodd"/>
</svg>
